<svg width="36" height="36" viewBox="0 0 36 36" fill="none" xmlns="http://www.w3.org/2000/svg">
<path fill-rule="evenodd" clip-rule="evenodd" d="M19.7883 28.783C21.7754 28.783 23.3862 30.3939 23.3862 32.3809C23.3862 34.368 21.7754 35.9788 19.7883 35.9788C17.8013 35.9788 16.1905 34.368 16.1905 32.3809C16.1905 30.3939 17.8013 28.783 19.7883 28.783ZM8.5292 23.3862C11.013 23.3862 13.0265 25.3997 13.0265 27.8836C13.0265 30.3674 11.013 32.3809 8.5292 32.3809C6.04538 32.3809 4.03185 30.3674 4.03185 27.8836C4.03185 25.3997 6.04538 23.3862 8.5292 23.3862ZM29.3575 24.2857C31.3445 24.2857 32.9554 25.8965 32.9554 27.8836C32.9554 29.8706 31.3445 31.4814 29.3575 31.4814C27.3704 31.4814 25.7596 29.8706 25.7596 27.8836C25.7596 25.8965 27.3704 24.2857 29.3575 24.2857ZM33.2804 16.7635C34.7707 16.7635 35.9788 17.9716 35.9788 19.4619C35.9788 20.9522 34.7707 22.1603 33.2804 22.1603C31.7901 22.1603 30.582 20.9522 30.582 19.4619C30.582 17.9716 31.7901 16.7635 33.2804 16.7635ZM4.49735 10.7936C6.98116 10.7936 8.9947 12.8072 8.9947 15.291C8.9947 17.7748 6.98116 19.7883 4.49735 19.7883C2.01353 19.7883 0 17.7748 0 15.291C0 12.8072 2.01353 10.7936 4.49735 10.7936ZM31.9956 9.36752C32.9891 9.36752 33.7945 10.1729 33.7945 11.1665C33.7945 12.16 32.9891 12.9654 31.9956 12.9654C31.002 12.9654 30.1966 12.16 30.1966 11.1665C30.1966 10.1729 31.002 9.36752 31.9956 9.36752ZM14.3915 0C17.3721 0 19.7883 2.41624 19.7883 5.39682C19.7883 8.3774 17.3721 10.7936 14.3915 10.7936C11.4109 10.7936 8.9947 8.3774 8.9947 5.39682C8.9947 2.41624 11.4109 0 14.3915 0ZM27.8836 5.39682C28.3803 5.39682 28.783 5.79952 28.783 6.29629C28.783 6.79305 28.3803 7.19576 27.8836 7.19576C27.3868 7.19576 26.9841 6.79305 26.9841 6.29629C26.9841 5.79952 27.3868 5.39682 27.8836 5.39682Z" fill="#096FFA"/>
</svg>
